HIERARCHY
ROOT root
{
	OFFSET 0.000000 0.000000 0.000000
	CHANNELS 6 Xposition Yposition Zposition Zrotation Yrotation Xrotation
	JOINT lhip
	{
		OFFSET 0.058581 -0.082280 -0.017664
		CHANNELS 3 Zrotation Yrotation Xrotation
		JOINT lknee
		{
			OFFSET 0.043451 -0.386469 0.008037
			CHANNELS 3 Zrotation Yrotation Xrotation
			JOINT lankle
			{
				OFFSET -0.014790 -0.426874 -0.037428
				CHANNELS 3 Zrotation Yrotation Xrotation
				JOINT ltoe
				{
					OFFSET 0.041054 -0.060286 0.122042
					CHANNELS 3 Zrotation Yrotation Xrotation
					End Site
					{
						OFFSET 0.000000 0.000000 0.000000
					}
				}
			}
		}
	}
	JOINT rhip
	{
		OFFSET -0.060310 -0.090513 -0.013543
		CHANNELS 3 Zrotation Yrotation Xrotation
		JOINT rknee
		{
			OFFSET -0.043257 -0.383688 -0.004843
			CHANNELS 3 Zrotation Yrotation Xrotation
			JOINT rankle
			{
				OFFSET 0.019056 -0.420046 -0.034562
				CHANNELS 3 Zrotation Yrotation Xrotation
				JOINT rtoe
				{
					OFFSET -0.034840 -0.062106 0.130323
					CHANNELS 3 Zrotation Yrotation Xrotation
					End Site
					{
						OFFSET 0.000000 0.000000 0.000000
					}
				}
			}
		}
	}
	JOINT lowerback
	{
		OFFSET 0.004439 0.124404 -0.038385
		CHANNELS 3 Zrotation Yrotation Xrotation
		JOINT upperback
		{
			OFFSET 0.004488 0.137956 0.026820
			CHANNELS 3 Zrotation Yrotation Xrotation
			JOINT chest
			{
				OFFSET -0.002265 0.056032 0.002855
				CHANNELS 3 Zrotation Yrotation Xrotation
				JOINT lowerneck
				{
					OFFSET -0.013390 0.211636 -0.033468
					CHANNELS 3 Zrotation Yrotation Xrotation
					JOINT upperneck
					{
						OFFSET 0.010113 0.088937 0.050410
						CHANNELS 3 Zrotation Yrotation Xrotation
						End Site
						{
							OFFSET 0.000000 0.000000 0.000000
						}
					}
				}
				JOINT lclavicle
				{
					OFFSET 0.071702 0.114000 -0.018898
					CHANNELS 3 Zrotation Yrotation Xrotation
					JOINT lshoulder
					{
						OFFSET 0.122921 0.045205 -0.019046
						CHANNELS 3 Zrotation Yrotation Xrotation
						JOINT lelbow
						{
							OFFSET 0.255332 -0.015649 -0.022946
							CHANNELS 3 Zrotation Yrotation Xrotation
							JOINT lwrist
							{
								OFFSET 0.265709 0.012698 -0.007375
								CHANNELS 3 Zrotation Yrotation Xrotation
								End Site
								{
									OFFSET 0.000000 0.000000 0.000000
								}
							}
						}
					}
				}
				JOINT rclavicle
				{
					OFFSET -0.082954 0.112472 -0.023707
					CHANNELS 3 Zrotation Yrotation Xrotation
					JOINT rshoulder
					{
						OFFSET -0.113228 0.046853 -0.008472
						CHANNELS 3 Zrotation Yrotation Xrotation
						JOINT relbow
						{
							OFFSET -0.260127 -0.014369 -0.031269
							CHANNELS 3 Zrotation Yrotation Xrotation
							JOINT rwrist
							{
								OFFSET -0.269108 0.006794 -0.006027
								CHANNELS 3 Zrotation Yrotation Xrotation
								End Site
								{
									OFFSET 0.000000 0.000000 0.000000
								}
							}
						}
					}
				}
			}
		}
	}
}
MOTION
Frames: 9
Frame Time: 0.033333
0.014810 0.223466 0.997812 94.018917 0.716420 87.893950 2.643261 1.908835 3.887779 0.666848 -7.656978 -0.474050 -1.005519 7.820116 -4.134958 0.000000 -0.000000 0.000000 -1.695269 -3.803915 5.654052 -1.975483 0.403832 -1.961037 2.623662 -6.765749 -4.716944 0.000000 -0.000000 0.000000 -1.181837 2.400625 -0.551625 0.702930 -3.955375 10.985546 0.087284 -0.636380 -6.257030 0.308131 -7.882795 -1.114720 6.356200 -8.440066 1.304571 -25.741090 -5.495152 5.475845 -59.000268 -8.143624 12.135921 14.884274 -14.135433 -2.337153 -11.146823 -8.190246 5.741163 23.674417 13.507748 5.030174 58.920843 7.025740 16.159037 -5.970845 15.197481 5.026180 12.489625 6.430606 4.032570 
0.014455 0.223115 0.997914 94.055682 0.760187 87.850842 2.708607 1.907855 3.847164 0.651074 -7.721243 -0.364128 -1.148697 7.822132 -4.133509 0.000000 -0.000000 0.000000 -1.577528 -3.765720 5.523118 -2.053816 0.411357 -1.642815 2.583050 -6.765586 -4.817638 0.000000 -0.000000 0.000000 -1.000347 2.322080 -0.224697 0.524810 -3.856948 10.596031 0.098595 -0.601195 -5.946728 0.310959 -7.696219 -1.106594 6.313282 -8.447775 1.142824 -25.573510 -5.689918 5.392561 -59.164835 -8.185240 12.074259 14.871038 -14.182859 -2.225035 -11.687650 -8.645539 5.781871 23.614679 13.643439 5.115862 59.010105 7.028470 16.089455 -6.105540 15.326725 5.167123 12.669067 6.669339 4.036982 
0.014039 0.222952 0.998094 94.086079 0.710765 87.822082 2.635303 1.879090 3.747956 0.644759 -7.746043 -0.170421 -1.137016 7.809413 -4.182236 0.000000 -0.000000 0.000000 -1.586147 -3.684529 5.307282 -2.070041 0.348437 -1.194162 2.537191 -6.829405 -5.063524 0.000000 -0.000000 0.000000 -0.972383 2.335402 -0.178426 0.497093 -3.861390 10.838144 0.077566 -0.619233 -5.857371 0.248571 -7.504770 -1.114359 6.385834 -8.402061 0.820562 -25.572016 -6.113601 5.478791 -59.143439 -8.311803 12.031449 14.854482 -14.227063 -2.471803 -11.827101 -8.689351 5.835343 23.515821 14.029521 5.175652 58.934786 7.001859 16.085558 -6.156874 15.625965 5.118508 12.730446 6.896587 3.978645 
0.013382 0.222625 0.998592 94.231949 0.638572 87.830138 2.527173 1.983503 3.430039 0.641710 -7.952601 0.283778 -1.141656 7.720558 -4.310743 0.000000 -0.000000 0.000000 -1.593891 -3.652913 4.927860 -2.107347 0.282278 -0.512429 2.486360 -6.836372 -5.331458 0.000000 -0.000000 0.000000 -1.007369 2.266489 -0.024844 0.519212 -3.893967 11.155917 0.111989 -0.642890 -5.792977 0.139089 -7.198803 -1.206947 6.375427 -8.228531 0.280003 -25.620065 -6.545889 5.473556 -59.099412 -8.370098 11.849089 14.959035 -14.506371 -2.821409 -12.009987 -8.456524 5.993032 23.568687 14.267555 5.437376 58.374712 6.941912 15.950916 -6.187550 16.865783 5.339478 12.892523 6.923551 4.364500 
0.013118 0.222366 0.998935 94.285292 0.611849 87.805151 2.480954 1.934817 3.292918 0.641439 -7.943684 0.574259 -1.101959 7.694467 -4.403940 0.000000 -0.000000 0.000000 -1.579928 -3.561491 4.727873 -2.118993 0.245550 -0.052115 2.467931 -6.916179 -5.533826 0.000000 -0.000000 0.000000 -1.005036 2.280045 0.019437 0.549976 -3.937916 11.549239 0.109872 -0.701138 -5.707179 0.163878 -6.806921 -1.312176 6.471690 -8.103802 -0.242803 -25.616583 -6.746903 5.317603 -59.040612 -8.337953 11.665529 15.172857 -14.999602 -3.045554 -12.351722 -8.442144 6.366820 23.756840 14.376443 5.627856 57.699633 6.903655 15.782224 -6.270740 18.139210 5.489910 13.092342 7.127285 4.941386 
0.012823 0.221799 0.999447 94.282795 0.613421 87.602901 2.467494 1.713809 3.421276 0.647004 -7.836145 0.802674 -1.064071 7.728350 -4.549818 0.000000 -0.000000 0.000000 -1.508334 -3.392748 4.696786 -2.156169 0.076568 0.428367 2.424339 -6.843362 -5.753816 0.000000 -0.000000 0.000000 -1.015020 2.318065 0.202615 0.594705 -4.017853 12.262346 0.230685 -0.803099 -5.517821 0.115582 -6.105378 -1.316670 6.776826 -8.035098 -1.532186 -25.790776 -7.013572 5.270538 -58.537349 -8.234544 10.806138 15.757864 -16.678178 -3.623019 -13.172167 -9.087155 6.893711 23.994463 14.482243 6.093026 56.333938 6.721881 15.207253 -6.580752 21.234386 5.781550 13.325700 7.827295 5.883712 
0.012205 0.221390 1.000109 94.316097 0.514707 87.430893 2.320551 1.674678 3.514641 0.673893 -7.800817 0.962159 -0.934370 7.659785 -4.648998 0.000000 -0.000000 0.000000 -1.633149 -3.349755 4.509643 -2.097593 -0.107751 1.077462 2.396823 -6.616278 -6.023487 0.000000 -0.000000 0.000000 -0.926939 2.348737 0.405435 0.515798 -3.989927 13.348972 0.150678 -0.874842 -5.371343 0.334420 -5.636415 -1.362827 7.199128 -7.895206 -3.394863 -26.256728 -6.706570 4.930357 -56.864562 -7.909814 9.642657 16.827679 -20.875663 -4.621628 -13.442078 -10.133865 7.431114 24.170463 13.994774 6.310541 54.631667 6.355726 14.110164 -7.289372 25.991547 4.958936 13.517426 9.089592 5.632490 
0.011553 0.220843 1.000614 94.154865 0.385010 87.303542 2.124344 1.642298 3.672818 0.718715 -7.612545 0.944302 -0.684444 7.562187 -4.791302 0.000000 -0.000000 0.000000 -1.807289 -3.347497 4.195209 -2.070747 -0.252916 1.836522 2.422505 -6.234134 -6.188563 0.000000 -0.000000 0.000000 -0.816922 2.415545 0.497379 0.464139 -3.852558 14.747300 -0.056186 -0.780979 -5.279981 0.619513 -5.139038 -1.181845 7.669391 -7.783489 -5.719382 -26.485519 -5.648231 4.126273 -54.243453 -7.459735 7.946738 18.035551 -27.448620 -6.615235 -13.112170 -11.577408 7.785541 24.078893 13.069250 6.257136 52.612153 5.428074 12.758613 -8.658405 32.676033 2.825037 12.872876 11.094090 4.863228 
0.010937 0.219972 1.000894 93.985726 0.217913 87.092511 1.893105 1.424849 3.927212 0.758180 -7.344598 0.926303 -0.408322 7.518775 -4.954299 0.000000 -0.000000 0.000000 -1.986105 -3.307019 4.159702 -2.075751 -0.462825 2.215873 2.435305 -5.866761 -6.269454 0.000000 -0.000000 0.000000 -0.754302 2.580219 0.810961 0.448894 -3.785660 15.993364 -0.208360 -0.654232 -5.070105 0.850244 -4.573313 -0.493036 8.372570 -7.727637 -8.373560 -26.025698 -4.325110 3.129534 -50.971731 -6.672366 6.056980 19.910006 -36.209865 -9.484972 -13.953452 -12.705798 7.165519 23.368692 11.883768 5.933031 50.393397 4.019388 11.174552 -11.378176 41.565064 -1.112000 12.932484 13.551157 2.308523 
